<?xml version="1.0" encoding="utf-8"?>
<!-- Generator: Adobe Illustrator 27.3.1, SVG Export Plug-In . SVG Version: 6.00 Build 0)  -->
<svg version="1.1" id="Layer_1" xmlns="http://www.w3.org/2000/svg" xmlns:xlink="http://www.w3.org/1999/xlink" x="0px" y="0px"
	 viewBox="0 0 1316.8 290" style="enable-background:new 0 0 1316.8 290;" xml:space="preserve">
<style type="text/css">
	.st0{fill:#089949;}
	.st1{fill:#F9B21D;}
	.st2{fill:#226DB4;}
	.st3{fill:#E42527;}
</style>
<g>
	<path d="M381.1,42.6h-36.8V22.7h99.1v19.9h-36.8v111.7h-25.5L381.1,42.6L381.1,42.6z"/>
	<path d="M538.7,133.3c-8,17-25.2,22.7-43,22.7c-30.4,0-49.5-20.3-49.5-50.2c0-28.2,19.5-49.9,48.4-49.9c31.1,0,46.3,18.2,46.3,55.2
		h-71.2c0,16.3,9.4,28.1,27,28.1c10.4,0,19-4.2,24.1-14L538.7,133.3L538.7,133.3z M518.1,96.1c-0.7-14.6-9.5-23.4-23.1-23.4
		c-14.5,0-22.9,10.2-24.9,23.4H518.1z"/>
	<path d="M615.1,142.5c-7.3,9.7-18,13.6-29.8,13.6c-18.1,0-32.2-9.2-32.2-28c0-26.7,28.2-30.9,50.6-30.9h11.3v-1.5
		c0-13.8-3.2-22.5-18.8-22.5c-9.3,0-18,4.8-21.4,13.8l-17.9-7.7c6.5-17,24.4-23.2,41.6-23.2c22.7,0,39.3,11,39.3,35.4v62.9h-22.6
		L615.1,142.5L615.1,142.5z M603.3,111.2c-10.6,0-27.5,1.3-27.5,15.8c0,9.2,6.7,12.7,15.4,12.7c11.7,0,23.7-6.1,23.7-19.1v-9.3
		H603.3L603.3,111.2z"/>
	<path d="M662,58h23v14.7c5.8-11,17.4-16.8,29.9-16.8s23.5,5.2,27.9,17.2c7.3-11,20-17.2,33.6-17.2c22.1,0,32.5,16.2,32.5,37.4v60.9
		h-22.9V94.8c0-12-6.1-19.9-18.3-19.9c-13.4,0-20.7,9.2-20.7,21.7v57.6h-23V94.8c0-12-6.1-19.9-18.4-19.9
		c-13.3,0-20.7,9.2-20.7,21.7v57.6h-23L662,58L662,58z"/>
	<path d="M835,22.7h25.4v131.5H835V22.7z"/>
	<path d="M888,58h23v15.3c6.2-11.9,19.1-17.3,32.5-17.3C966.6,56,977,72.2,977,94v60.2h-23.4V96.3c0-13.5-6-21.4-19.7-21.4
		c-14.5,0-23,9-23,22.8v56.5h-23L888,58L888,58z"/>
	<path d="M1001.2,14.4h23v59.1c6.7-11,20-17.6,32.8-17.6c29.3,0,43.8,23.5,43.8,49.9s-15.3,50.2-43,50.2c-13.6,0-27.2-5.5-33.5-17.2
		v15.4h-23L1001.2,14.4L1001.2,14.4z M1077,105.3c0-16.3-8-31.4-26.9-31.4s-26.7,15.3-26.7,32.3c0,18.1,8.6,31.8,27.8,31.8
		C1071.3,138.1,1077,123,1077,105.3L1077,105.3z"/>
	<path d="M1163.9,56c29.2,0,51.7,20.5,51.7,50S1192,156,1163,156s-52.8-20.3-52.8-49.7S1135,55.9,1163.9,56z M1190.9,106.1
		c0-17.7-9-32.4-27.8-32.4s-27.1,15.4-27.1,33.1s9.1,31.6,27.7,31.6S1190.9,122.9,1190.9,106.1L1190.9,106.1z"/>
	<path d="M1254.4,104.9L1223.1,58h26.6l20,30.9l19.8-30.9h24l-31.2,45.3l34.5,50.9H1290l-22.3-34.6l-23,34.6h-24L1254.4,104.9
		L1254.4,104.9z"/>
</g>
<g>
	<path d="M366.6,207.7h5.8v22.7c0.7-1,1.5-2,2.5-2.8c1-0.8,2-1.6,3.2-2.1c1.1-0.6,2.4-1.1,3.6-1.4c1.2-0.3,2.5-0.5,3.7-0.5
		c2.8,0,5.2,0.5,7.3,1.5c2.1,1,3.8,2.4,5.2,4.1c1.4,1.7,2.5,3.7,3.2,6c0.7,2.3,1.1,4.7,1.1,7.2s-0.4,5-1.1,7.3s-1.8,4.4-3.2,6.1
		c-1.4,1.8-3.2,3.2-5.2,4.2c-2.1,1-4.4,1.5-7.1,1.5c-1.3,0-2.6-0.1-3.8-0.4c-1.3-0.3-2.5-0.7-3.6-1.2c-1.1-0.5-2.2-1.2-3.1-2.1
		s-1.8-1.8-2.5-2.9v6h-5.8L366.6,207.7L366.6,207.7z M384.7,256.7c2.2,0,4-0.4,5.5-1.2c1.5-0.8,2.6-1.8,3.5-3.1
		c0.9-1.3,1.5-2.8,1.9-4.6s0.5-3.5,0.5-5.4c0-1.8-0.2-3.5-0.7-5.1c-0.5-1.7-1.1-3.1-2.1-4.4s-2.1-2.3-3.5-3.1
		c-1.4-0.8-3.1-1.2-5.1-1.2c-2.1,0-4,0.4-5.6,1.1s-2.9,1.8-3.9,3.1s-1.8,2.8-2.3,4.5s-0.8,3.5-0.8,5.4s0.3,3.9,0.8,5.6
		s1.3,3.2,2.4,4.4c1,1.2,2.4,2.2,3.9,2.9C380.9,256.3,382.7,256.7,384.7,256.7L384.7,256.7z"/>
	<path d="M419.9,257.1l-14.1-32.8h6.2l11,26.2l10.1-26.2h6l-20.2,49.4H413L419.9,257.1L419.9,257.1z"/>
	<path d="M456.9,258.4l29.2-42.6h-26.7v-5h34.2v2.5l-28.4,42.4h28v5.2h-36.3L456.9,258.4L456.9,258.4z"/>
	<path d="M517,261.5c-2.7,0-5.2-0.5-7.4-1.5s-4.1-2.3-5.7-4c-1.6-1.7-2.8-3.7-3.6-6c-0.8-2.3-1.3-4.8-1.3-7.4s0.5-5.2,1.4-7.6
		s2.1-4.3,3.8-6c1.6-1.7,3.5-3,5.8-4c2.3-1,4.7-1.4,7.4-1.4s5.2,0.5,7.5,1.5c2.2,1,4.1,2.3,5.7,4s2.8,3.7,3.6,6
		c0.9,2.3,1.3,4.8,1.3,7.4s-0.5,5.2-1.3,7.5s-2.2,4.3-3.8,6c-1.6,1.7-3.6,3-5.8,4S519.7,261.5,517,261.5L517,261.5z M517.1,256.7
		c2.1,0,3.9-0.4,5.5-1.2c1.5-0.8,2.8-1.8,3.8-3.1s1.8-2.8,2.3-4.5s0.7-3.5,0.7-5.3s-0.3-3.7-0.8-5.4s-1.3-3.2-2.3-4.5
		c-1-1.3-2.3-2.3-3.9-3.1s-3.3-1.1-5.4-1.1s-3.9,0.4-5.4,1.1c-1.5,0.8-2.8,1.8-3.7,3.1c-1,1.3-1.7,2.8-2.2,4.5
		c-0.5,1.7-0.7,3.5-0.7,5.4s0.2,3.8,0.8,5.5c0.5,1.7,1.3,3.2,2.3,4.5c1,1.3,2.3,2.3,3.8,3C513.3,256.3,515.1,256.7,517.1,256.7
		L517.1,256.7z"/>
	<path d="M544.2,207.7h5.8v22.4c1.2-2.3,2.8-3.9,4.8-4.9s4.3-1.5,6.8-1.5c2.3,0,4.2,0.4,6,1.1s3.1,1.8,4.3,3.2c1.1,1.4,2,3,2.6,4.8
		c0.6,1.9,0.9,3.9,0.9,6v22.1h-5.8v-22.5c0-3.2-0.8-5.6-2.3-7.2c-1.5-1.6-3.8-2.5-6.9-2.5c-3.3,0-5.8,0.9-7.6,2.7
		c-1.8,1.8-2.7,4.2-2.7,7.3v22.2h-5.8L544.2,207.7L544.2,207.7z"/>
	<path d="M601.7,261.5c-2.7,0-5.2-0.5-7.4-1.5s-4.1-2.3-5.7-4c-1.6-1.7-2.8-3.7-3.6-6c-0.8-2.3-1.3-4.8-1.3-7.4s0.5-5.2,1.3-7.6
		s2.2-4.3,3.8-6s3.5-3,5.8-4s4.7-1.4,7.4-1.4s5.2,0.5,7.5,1.5c2.2,1,4.1,2.3,5.7,4s2.8,3.7,3.6,6c0.9,2.3,1.3,4.8,1.3,7.4
		s-0.5,5.2-1.3,7.5s-2.2,4.3-3.8,6c-1.6,1.7-3.6,3-5.8,4S604.5,261.5,601.7,261.5L601.7,261.5z M601.8,256.7c2.1,0,3.9-0.4,5.5-1.2
		c1.5-0.8,2.8-1.8,3.8-3.1s1.8-2.8,2.3-4.5s0.7-3.5,0.7-5.3s-0.3-3.7-0.8-5.4s-1.3-3.2-2.3-4.5c-1-1.3-2.3-2.3-3.9-3.1
		s-3.3-1.1-5.4-1.1s-3.9,0.4-5.4,1.1c-1.5,0.8-2.8,1.8-3.7,3.1s-1.7,2.8-2.2,4.5c-0.5,1.7-0.7,3.5-0.7,5.4s0.2,3.8,0.8,5.5
		c0.5,1.7,1.3,3.2,2.3,4.5c1,1.3,2.3,2.3,3.8,3C598.1,256.3,599.8,256.7,601.8,256.7L601.8,256.7z"/>
	<path d="M643.6,210.9h8.5l16,39.7l15.8-39.7h8.4v50h-6.1v-42.1l-17,42.1h-2.6l-17.5-42.1v42.1h-5.6L643.6,210.9L643.6,210.9z"/>
	<path d="M724.9,256.3c-1.3,1.8-3,3.1-5.1,3.9c-2.1,0.9-4.2,1.3-6.5,1.3c-1.6,0-3.2-0.2-4.6-0.7c-1.5-0.5-2.7-1.1-3.8-2
		s-2-2-2.6-3.4c-0.7-1.3-1-2.9-1-4.6c0-1.9,0.4-3.4,1.1-4.7c0.7-1.3,1.7-2.4,2.9-3.2c1.2-0.8,2.6-1.5,4.1-2s3.2-0.8,4.8-1
		c1.7-0.2,3.3-0.4,4.9-0.4s3.1-0.1,4.5-0.1h1.3v-0.2c0-1.6-0.1-3-0.3-4.3c-0.2-1.3-0.6-2.4-1.3-3.4c-0.6-0.9-1.5-1.7-2.6-2.2
		c-1.1-0.5-2.6-0.8-4.4-0.8c-1,0-2,0.1-2.9,0.4c-1,0.3-1.8,0.7-2.7,1.3s-1.5,1.2-2.2,2c-0.6,0.8-1.1,1.7-1.4,2.6l-5-2.1
		c0.7-1.5,1.5-2.9,2.5-4c1-1.1,2.1-2.1,3.4-2.8c1.2-0.8,2.6-1.3,4.1-1.7c1.5-0.4,3-0.6,4.6-0.6c2,0,3.9,0.3,5.7,0.9
		c1.7,0.6,3.2,1.5,4.4,2.6c1.2,1.1,2.2,2.5,2.9,4.2s1,3.5,1,5.6v24h-5.8L724.9,256.3L724.9,256.3z M719.9,243.5
		c-0.8,0-1.7,0-2.6,0.1c-0.9,0.1-1.9,0.2-2.8,0.4c-1,0.2-1.9,0.4-2.8,0.8s-1.7,0.8-2.3,1.3s-1.2,1.2-1.6,2c-0.4,0.8-0.6,1.7-0.6,2.8
		s0.2,2.1,0.5,2.9c0.3,0.8,0.8,1.4,1.4,1.9s1.3,0.8,2.1,1.1s1.7,0.3,2.7,0.3c1.3,0,2.7-0.2,4-0.6c1.3-0.4,2.5-0.9,3.5-1.7
		c1-0.8,1.9-1.7,2.5-2.8c0.7-1.1,1-2.4,1-3.8v-4.6L719.9,243.5L719.9,243.5z"/>
	<path d="M741,213.8c0-1.1,0.4-2,1.1-2.8s1.7-1.1,2.8-1.1s2,0.4,2.8,1.1s1.1,1.7,1.1,2.8s-0.4,2-1.1,2.8s-1.7,1.1-2.8,1.1
		s-2-0.4-2.8-1.1S741,214.9,741,213.8z M742,224.4h5.8v36.5H742V224.4z"/>
	<path d="M759.7,208l5.9-2.6v55.5h-5.9V208z"/>
</g>
<g>
	<path class="st0" d="M173.8,45.1h-18.2c5.9-11.7,4-26.3-5.7-36C144,3.3,136.1,0,127.9,0c-17.1,0-31,13.9-31,31
		c0,5.1,1.2,9.9,3.4,14.1H70.8c-4.7,0-8.5,3.8-8.5,8.5s3.8,8.5,8.5,8.5h103c10.9,0,19.8,8.9,19.8,19.8v85.9c0,4.7,3.8,8.5,8.5,8.5
		l0,0c4.7,0,8.5-3.8,8.5-8.5V81.9C210.6,61.6,194.1,45.1,173.8,45.1z M127.9,17L127.9,17c3.7,0,7.3,1.5,9.9,4.1
		c2.6,2.6,4.1,6.2,4.1,9.9c0,7.8-6.3,14.1-14,14.1c-7.8,0-14-6.3-14-14C113.8,23.3,120.1,17,127.9,17z"/>
	<path class="st1" d="M228,236.4c0-4.7-3.8-8.5-8.5-8.5H116.2c-10.9,0-19.8-8.9-19.8-19.8v-85.8c0-4.7-3.8-8.5-8.5-8.5
		s-8.5,3.8-8.5,8.5v85.8c0,20.3,16.5,36.8,36.8,36.8h18.2c-2.1,4.2-3.4,9-3.4,14c0,17.1,13.9,31,31,31c8.2,0,16.1-3.2,22-9.1
		c5.8-5.8,9.1-13.7,9.1-22c0-5.1-1.2-9.8-3.4-14.1h29.8l0,0C224.2,244.9,228,241.1,228,236.4z M162.1,273c-7.8,0-14-6.3-14-14
		c0-7.8,6.3-14,14-14h0c3.7,0,7.3,1.5,9.9,4.1c2.6,2.6,4.1,6.2,4.1,9.9C176.2,266.7,169.9,273,162.1,273z"/>
	<path class="st2" d="M259,96.8c-5.1,0-9.9,1.2-14.1,3.4V70.7c0-4.7-3.8-8.5-8.5-8.5s-8.5,3.8-8.5,8.5v103.1
		c0,10.9-8.9,19.8-19.8,19.8h-86c-4.7,0-8.5,3.8-8.5,8.5s3.8,8.5,8.5,8.5h86l0,0c20.3,0,36.8-16.5,36.8-36.8v-18.3
		c4.2,2.2,9,3.4,14.1,3.4c8.2,0,16.2-3.2,22-9.1c5.8-5.8,9.1-13.7,9.1-21.9C290,110.7,276.1,96.8,259,96.8z M268.9,137.8
		c-2.6,2.6-6.2,4.1-9.9,4.1c-7.8,0-14-6.3-14-14c0-7.8,6.3-14.1,14-14.1v0c3.7,0,7.3,1.5,9.9,4.1
		C274.4,123.4,274.4,132.3,268.9,137.8z"/>
	<path class="st3" d="M168.1,79.4H81.9c-20.3,0-36.8,16.5-36.8,36.8v18.2c-4.2-2.1-9-3.4-14-3.4c-17.1,0-31,13.9-31,31
		c0,17.1,13.9,31,31,31c4.9,0,9.7-1.2,14-3.4v29.4c0,4.7,3.8,8.5,8.5,8.5l0,0c4.7,0,8.5-3.8,8.5-8.5V116.2
		c0-10.9,8.9-19.8,19.8-19.8h86.2c4.7,0,8.5-3.8,8.5-8.5S172.8,79.4,168.1,79.4z M31,176.1c-7.8,0-14.1-6.3-14.1-14s6.3-14,14.1-14
		l0,0c3.7,0,7.3,1.5,9.9,4.1c2.6,2.6,4.1,6.2,4.1,9.9C45.1,169.9,38.8,176.1,31,176.1z"/>
</g>
</svg>
