<?xml version="1.0" encoding="UTF-8"?>
<svg id="Layer_1" data-name="Layer 1" xmlns="http://www.w3.org/2000/svg" viewBox="0 0 926.5 290">
  <defs>
    <style>
      .cls-1 {
        fill: #e42527;
      }

      .cls-2 {
        fill: #226db4;
      }
    </style>
  </defs>
  <g>
    <path d="m381.06,42.43h-36.84v-19.86h99.1v19.86h-36.75v111.68h-25.52V42.43Z"/>
    <path d="m497.05,55.82c29.2,0,51.66,20.48,51.66,49.95s-23.63,50.13-52.65,50.13-52.83-20.3-52.83-49.68,24.89-50.4,53.82-50.4Zm26.95,50.13c0-17.7-8.98-32.43-27.85-32.43s-27.13,15.45-27.13,33.06,9.07,31.62,27.67,31.62,27.31-15.45,27.31-32.25Z"/>
    <path d="m609.89,55.82c29.2,0,51.66,20.48,51.66,49.95s-23.63,50.13-52.65,50.13-52.83-20.3-52.83-49.68,24.89-50.4,53.82-50.4Zm26.95,50.13c0-17.7-8.98-32.43-27.85-32.43s-27.13,15.45-27.13,33.06,9.07,31.62,27.67,31.62,27.31-15.45,27.31-32.25Z"/>
    <path d="m678.98,18.89l23-9.97v145.19h-23V18.89Z"/>
    <path d="m727.86,14.31h23v85.53l34.86-41.96h25.25l-38.18,44.11,41.06,52.11h-26.5l-36.48-46.9v46.9h-23V14.31Z"/>
    <path d="m840.34,17.19c7.46,0,13.39,5.48,13.39,13.12s-5.75,13.03-13.3,13.03-13.75-5.57-13.75-13.12,6.2-13.03,13.66-13.03Zm-11.59,40.88h23v96.04h-23V58.07Z"/>
    <path d="m926.5,153.39c-4.94,1.44-10.06,2.34-15.81,2.34-18.33,0-29.2-9.52-29.2-28.66v-52.29h-12.94v-16.89h12.94v-19.86l23-9.97v29.83h21.2v16.89h-21.2v50.22c0,7.55,3.23,12.22,11.68,12.22,3.23,0,6.83-.72,10.33-1.89v18.06Z"/>
  </g>
  <g>
    <path d="m366.5,207.6h5.81v22.73c.66-1.03,1.48-1.96,2.46-2.8.98-.84,2.04-1.56,3.2-2.15,1.15-.59,2.35-1.05,3.61-1.37,1.25-.32,2.48-.48,3.69-.48,2.76,0,5.18.5,7.26,1.5,2.09,1,3.83,2.36,5.25,4.07,1.41,1.71,2.48,3.7,3.2,5.96.72,2.27,1.08,4.66,1.08,7.16s-.37,4.99-1.11,7.31-1.82,4.36-3.25,6.12c-1.42,1.75-3.17,3.15-5.25,4.19-2.07,1.04-4.44,1.55-7.11,1.55-1.3,0-2.58-.14-3.84-.41-1.27-.27-2.46-.68-3.59-1.23-1.13-.55-2.17-1.24-3.13-2.08-.96-.84-1.78-1.82-2.46-2.94v6.05h-5.81v-53.18Zm18.12,48.95c2.19,0,4.02-.39,5.49-1.18,1.47-.79,2.64-1.83,3.52-3.14.88-1.31,1.5-2.83,1.86-4.56.36-1.73.55-3.54.55-5.43,0-1.75-.23-3.46-.68-5.13-.46-1.66-1.15-3.14-2.08-4.43-.93-1.29-2.12-2.32-3.55-3.11-1.44-.79-3.13-1.18-5.09-1.18-2.14,0-4,.38-5.57,1.14-1.57.76-2.87,1.79-3.9,3.09s-1.79,2.81-2.29,4.53c-.5,1.72-.75,3.54-.75,5.45s.27,3.86.8,5.57,1.33,3.18,2.38,4.43c1.05,1.24,2.35,2.21,3.91,2.9,1.56.7,3.37,1.04,5.42,1.04Z"/>
    <path d="m419.86,256.99l-14.15-32.81h6.22l11.01,26.25,10.15-26.25h5.95l-20.23,49.36h-5.88l6.94-16.54Z"/>
    <path d="m456.77,258.26l29.19-42.55h-26.66v-4.96h34.25v2.5l-28.44,42.35h27.99v5.2h-36.33v-2.53Z"/>
    <path d="m516.89,261.4c-2.73,0-5.21-.49-7.43-1.47-2.22-.98-4.11-2.32-5.67-4.02-1.56-1.7-2.76-3.69-3.61-5.98-.84-2.29-1.26-4.75-1.26-7.37s.45-5.23,1.35-7.55,2.15-4.33,3.76-6.03c1.61-1.7,3.54-3.03,5.79-4s4.73-1.45,7.42-1.45,5.22.49,7.45,1.47c2.23.98,4.14,2.32,5.71,4.03s2.79,3.71,3.64,6c.86,2.29,1.28,4.75,1.28,7.37s-.45,5.2-1.35,7.52-2.17,4.34-3.79,6.03c-1.63,1.7-3.57,3.03-5.83,4-2.26.97-4.74,1.45-7.45,1.45Zm.1-4.85c2.1,0,3.92-.39,5.47-1.16,1.55-.77,2.83-1.81,3.84-3.11s1.77-2.8,2.26-4.5c.49-1.7.74-3.47.74-5.31s-.26-3.72-.77-5.42c-.51-1.7-1.29-3.19-2.32-4.48-1.04-1.29-2.33-2.31-3.88-3.06-1.55-.75-3.35-1.13-5.4-1.13s-3.87.38-5.38,1.14c-1.52.76-2.76,1.79-3.74,3.09-.98,1.3-1.7,2.8-2.17,4.49-.47,1.7-.7,3.49-.7,5.38s.25,3.83.75,5.54c.5,1.71,1.26,3.2,2.27,4.46,1.01,1.27,2.27,2.26,3.78,2.97,1.5.72,3.26,1.08,5.26,1.08Z"/>
    <path d="m544.1,207.6h5.81v22.39c1.16-2.26,2.77-3.9,4.82-4.92s4.33-1.54,6.84-1.54c2.26,0,4.24.38,5.95,1.14,1.71.76,3.13,1.82,4.27,3.18,1.14,1.36,2,2.96,2.58,4.8.58,1.85.87,3.85.87,6.02v22.11h-5.81v-22.52c0-3.17-.78-5.57-2.32-7.21-1.55-1.64-3.84-2.46-6.87-2.46-3.26,0-5.79.89-7.61,2.68-1.81,1.79-2.72,4.23-2.72,7.33v22.18h-5.81v-53.18Z"/>
    <path d="m601.66,261.4c-2.73,0-5.21-.49-7.43-1.47-2.22-.98-4.11-2.32-5.67-4.02-1.56-1.7-2.76-3.69-3.61-5.98-.84-2.29-1.26-4.75-1.26-7.37s.45-5.23,1.35-7.55,2.15-4.33,3.76-6.03c1.61-1.7,3.54-3.03,5.79-4s4.73-1.45,7.42-1.45,5.22.49,7.45,1.47c2.23.98,4.14,2.32,5.71,4.03s2.79,3.71,3.64,6c.86,2.29,1.28,4.75,1.28,7.37s-.45,5.2-1.35,7.52-2.17,4.34-3.79,6.03c-1.63,1.7-3.57,3.03-5.83,4-2.26.97-4.74,1.45-7.45,1.45Zm.1-4.85c2.1,0,3.92-.39,5.47-1.16,1.55-.77,2.83-1.81,3.84-3.11s1.77-2.8,2.26-4.5c.49-1.7.74-3.47.74-5.31s-.26-3.72-.77-5.42c-.51-1.7-1.29-3.19-2.32-4.48-1.04-1.29-2.33-2.31-3.88-3.06-1.55-.75-3.35-1.13-5.4-1.13s-3.87.38-5.38,1.14c-1.52.76-2.76,1.79-3.74,3.09-.98,1.3-1.7,2.8-2.17,4.49-.47,1.7-.7,3.49-.7,5.38s.25,3.83.75,5.54c.5,1.71,1.26,3.2,2.27,4.46,1.01,1.27,2.27,2.26,3.78,2.97,1.5.72,3.26,1.08,5.26,1.08Z"/>
    <path d="m643.56,210.75h8.48l16.03,39.68,15.83-39.68h8.41v50.04h-6.08v-42.14l-16.95,42.14h-2.6l-17.5-42.14v42.14h-5.61v-50.04Z"/>
    <path d="m724.84,256.17c-1.32,1.75-3.02,3.07-5.09,3.93-2.07.87-4.23,1.3-6.46,1.3-1.62,0-3.16-.23-4.61-.68-1.46-.46-2.73-1.13-3.83-2.03s-1.97-2.02-2.61-3.35c-.65-1.33-.97-2.88-.97-4.63,0-1.87.36-3.45,1.08-4.73.72-1.29,1.68-2.35,2.87-3.2,1.2-.84,2.57-1.5,4.12-1.98,1.55-.48,3.15-.83,4.8-1.04,1.65-.22,3.29-.35,4.92-.39,1.63-.04,3.13-.07,4.49-.07h1.3v-.24c0-1.57-.11-3.01-.32-4.32-.22-1.31-.64-2.43-1.27-3.37-.63-.93-1.5-1.66-2.63-2.19-1.13-.52-2.59-.79-4.39-.79-1,0-1.98.15-2.94.44-.96.3-1.85.72-2.67,1.28s-1.54,1.23-2.15,2.02c-.62.79-1.08,1.66-1.4,2.62l-4.96-2.15c.66-1.53,1.49-2.85,2.48-3.98.99-1.13,2.11-2.07,3.37-2.82,1.25-.75,2.61-1.32,4.07-1.69,1.46-.38,2.98-.56,4.58-.56,2.05,0,3.94.3,5.66.91,1.72.6,3.2,1.48,4.44,2.61,1.24,1.14,2.21,2.53,2.9,4.17s1.04,3.5,1.04,5.57v23.99h-5.81v-4.61Zm-5.02-12.75c-.8,0-1.66.03-2.6.09-.93.06-1.88.18-2.82.36-.95.18-1.86.43-2.75.75-.89.32-1.67.75-2.34,1.28s-1.21,1.19-1.62,1.96c-.41.78-.62,1.7-.62,2.77s.17,2.07.5,2.85c.33.79.79,1.42,1.38,1.91.59.49,1.3.84,2.12,1.06.82.22,1.72.33,2.7.33,1.34,0,2.68-.19,4-.56,1.32-.38,2.51-.94,3.55-1.69,1.05-.75,1.9-1.67,2.55-2.77.65-1.09.97-2.36.97-3.79v-4.55h-5.02Z"/>
    <path d="m740.91,213.65c0-1.09.37-2.01,1.11-2.75s1.66-1.11,2.75-1.11,2.01.37,2.75,1.11c.74.74,1.11,1.66,1.11,2.75s-.37,2.01-1.11,2.75-1.66,1.11-2.75,1.11-2.01-.37-2.75-1.11c-.74-.74-1.11-1.66-1.11-2.75Zm1.06,10.6h5.81v36.54h-5.81v-36.54Z"/>
    <path d="m759.6,207.84l5.88-2.6v55.54h-5.88v-52.94Z"/>
  </g>
  <g>
    <path class="cls-1" d="m171.59,290h-53.19c-4.7,0-8.5-3.79-8.5-8.5v-75.76l-42.79-24.7c-2.63-1.53-4.25-4.33-4.25-7.36v-62.36c0-2.38.99-4.64,2.75-6.26l47.04-43.08c3.46-3.17,8.84-2.95,12.01.54,3.17,3.46,2.95,8.84-.54,12.01l-44.26,40.53v53.72l42.79,24.7c2.63,1.53,4.25,4.33,4.25,7.36v72.16h36.19v-72.16c0-3.03,1.61-5.83,4.25-7.36l42.79-24.7v-53.72l-44.29-40.55c-3.46-3.17-3.71-8.55-.54-12.01,3.17-3.46,8.55-3.71,12.01-.54l47.07,43.1c1.76,1.61,2.75,3.88,2.75,6.26v62.36c0,3.03-1.61,5.83-4.25,7.36l-42.79,24.7v75.76c0,4.7-3.79,8.5-8.5,8.5Z"/>
    <path class="cls-2" d="m239.02,59.76h-11.78v-17.28c0-23.42-19.06-42.48-42.48-42.48h-79.5c-23.42,0-42.48,19.06-42.48,42.48v17.28h-11.81C22.85,59.76,0,82.61,0,110.73v128.29c0,28.12,22.85,50.98,50.98,50.98h188.05c28.12,0,50.98-22.85,50.98-50.98V110.73c0-28.12-22.85-50.98-50.98-50.98Zm-159.25-17.28c0-14.05,11.44-25.49,25.49-25.49h79.5c14.05,0,25.49,11.44,25.49,25.49v17.28h-38.66c-4.7,0-8.5,3.79-8.5,8.5v68.25h-36.19v-68.25c0-4.7-3.79-8.5-8.5-8.5h-38.63v-17.28Zm193.23,196.54c0,18.75-15.24,33.98-33.98,33.98H50.98c-18.75,0-33.98-15.24-33.98-33.98V110.73c0-18.75,15.24-33.98,33.98-33.98h58.93v68.25c0,4.7,3.79,8.5,8.5,8.5h53.19c4.7,0,8.5-3.79,8.5-8.5v-68.25h58.93c18.75,0,33.98,15.24,33.98,33.98v128.29Z"/>
  </g>
</svg>