<?xml version="1.0" encoding="utf-8"?>
<!-- Generator: Adobe Illustrator 27.3.1, SVG Export Plug-In . SVG Version: 6.00 Build 0)  -->
<svg version="1.1" id="Layer_1" xmlns="http://www.w3.org/2000/svg" xmlns:xlink="http://www.w3.org/1999/xlink" x="0px" y="0px"
	 viewBox="0 0 1209.5 290" style="enable-background:new 0 0 1209.5 290;" xml:space="preserve">
<style type="text/css">
	.st0{fill:#226DB4;}
	.st1{fill:#F9B21D;}
</style>
<g>
	<path d="M344.6,144.3l70.3-101.5h-63.2v-20H448v10l-68.5,101.5H446v20H344.6L344.6,144.3L344.6,144.3z"/>
	<path d="M549.8,133.3c-8,17-25.2,22.7-43,22.7c-30.4,0-49.5-20.3-49.5-50.2c0-28.2,19.5-49.9,48.4-49.9c31.1,0,46.3,18.2,46.3,55.2
		h-71.2c0,16.3,9.4,28.1,27,28.1c10.4,0,19-4.2,24.1-14L549.8,133.3L549.8,133.3z M529.1,96.1c-0.7-14.6-9.5-23.4-23.1-23.4
		c-14.5,0-22.9,10.2-24.9,23.4H529.1z"/>
	<path d="M570.5,58h23v15.5c6.7-11.2,20.1-17.6,33-17.6c29.4,0,43.6,23.6,43.6,49.9S655,156,627.1,156c-13.5,0-27.1-5.4-33.6-16.9
		v48.1h-23L570.5,58L570.5,58z M646.3,105.3c0-16.3-8.1-31.4-27-31.4s-26.7,15.2-26.7,32.5s8.3,31.6,27.4,31.6
		C640.4,138.1,646.3,123,646.3,105.3L646.3,105.3z"/>
	<path d="M737.6,153.5c-4.9,1.4-10.1,2.3-15.8,2.3c-18.3,0-29.2-9.5-29.2-28.7V74.9h-12.9V58h12.9V38.2l23-10V58h21.2v16.9h-21.2
		v50.2c0,7.5,3.2,12.2,11.7,12.2c3.2,0,6.8-0.7,10.3-1.9V153.5L737.6,153.5z"/>
	<path d="M799.3,56c29.2,0,51.7,20.5,51.7,50S827.4,156,798.3,156s-52.8-20.3-52.8-49.7S770.4,55.9,799.3,56L799.3,56z M826.3,106.1
		c0-17.7-9-32.4-27.8-32.4s-27.1,15.4-27.1,33.1s9.1,31.6,27.7,31.6S826.3,122.9,826.3,106.1z"/>
	<path d="M868.7,22.7H901l37.9,95.9l37.6-95.9h31.5v131.5h-23.5V54l-41.4,100.3h-11.3L891.7,54v100.3h-23L868.7,22.7L868.7,22.7z"/>
	<path d="M1089.3,142.5c-7.3,9.7-18,13.6-29.8,13.6c-18.1,0-32.2-9.2-32.2-28c0-26.7,28.2-30.9,50.6-30.9h11.3v-1.5
		c0-13.8-3.2-22.5-18.8-22.5c-9.3,0-18,4.8-21.4,13.8l-17.9-7.7c6.5-17,24.4-23.2,41.6-23.2c22.7,0,39.3,11,39.3,35.4v62.9h-22.6
		L1089.3,142.5L1089.3,142.5z M1077.5,111.2c-10.6,0-27.5,1.3-27.5,15.8c0,9.2,6.7,12.7,15.4,12.7c11.7,0,23.7-6.1,23.7-19.1v-9.3
		H1077.5z"/>
	<path d="M1148.4,17.3c7.5,0,13.4,5.5,13.4,13.1s-5.8,13-13.3,13s-13.8-5.6-13.8-13.1S1140.9,17.3,1148.4,17.3z M1136.8,58.2h23v96
		h-23V58.2z"/>
	<path d="M1186.5,19l23-10v145.2h-23V19z"/>
</g>
<g>
	<path d="M353.3,207.7h5.8v22.7c0.7-1,1.5-2,2.5-2.8c1-0.8,2-1.6,3.2-2.1c1.1-0.6,2.4-1.1,3.6-1.4c1.2-0.3,2.5-0.5,3.7-0.5
		c2.8,0,5.2,0.5,7.3,1.5c2.1,1,3.8,2.4,5.2,4.1c1.4,1.7,2.5,3.7,3.2,6c0.7,2.3,1.1,4.7,1.1,7.2s-0.4,5-1.1,7.3s-1.8,4.4-3.2,6.1
		c-1.4,1.8-3.2,3.2-5.2,4.2c-2.1,1-4.4,1.5-7.1,1.5c-1.3,0-2.6-0.1-3.8-0.4c-1.3-0.3-2.5-0.7-3.6-1.2c-1.1-0.5-2.2-1.2-3.1-2.1
		s-1.8-1.8-2.5-2.9v6h-5.8L353.3,207.7L353.3,207.7z M371.4,256.7c2.2,0,4-0.4,5.5-1.2c1.5-0.8,2.6-1.8,3.5-3.1
		c0.9-1.3,1.5-2.8,1.9-4.6s0.5-3.5,0.5-5.4c0-1.8-0.2-3.5-0.7-5.1c-0.5-1.7-1.1-3.1-2.1-4.4s-2.1-2.3-3.5-3.1
		c-1.4-0.8-3.1-1.2-5.1-1.2c-2.1,0-4,0.4-5.6,1.1s-2.9,1.8-3.9,3.1s-1.8,2.8-2.3,4.5s-0.8,3.5-0.8,5.4s0.3,3.9,0.8,5.6
		s1.3,3.2,2.4,4.4c1,1.2,2.4,2.2,3.9,2.9C367.6,256.3,369.4,256.7,371.4,256.7L371.4,256.7z"/>
	<path d="M406.7,257.1l-14.1-32.8h6.2l11,26.2l10.1-26.2h6l-20.2,49.4h-5.9L406.7,257.1L406.7,257.1z"/>
	<path d="M443.6,258.4l29.2-42.6h-26.7v-5h34.2v2.5l-28.4,42.4h28v5.2h-36.3L443.6,258.4L443.6,258.4z"/>
	<path d="M503.7,261.5c-2.7,0-5.2-0.5-7.4-1.5s-4.1-2.3-5.7-4c-1.6-1.7-2.8-3.7-3.6-6c-0.8-2.3-1.3-4.8-1.3-7.4s0.5-5.2,1.4-7.6
		s2.1-4.3,3.8-6c1.6-1.7,3.5-3,5.8-4s4.7-1.4,7.4-1.4s5.2,0.5,7.5,1.5s4.1,2.3,5.7,4s2.8,3.7,3.6,6c0.9,2.3,1.3,4.8,1.3,7.4
		s-0.5,5.2-1.3,7.5s-2.2,4.3-3.8,6c-1.6,1.7-3.6,3-5.8,4C508.9,261.1,506.4,261.5,503.7,261.5L503.7,261.5z M503.8,256.7
		c2.1,0,3.9-0.4,5.5-1.2c1.5-0.8,2.8-1.8,3.8-3.1s1.8-2.8,2.3-4.5s0.7-3.5,0.7-5.3s-0.3-3.7-0.8-5.4s-1.3-3.2-2.3-4.5
		c-1-1.3-2.3-2.3-3.9-3.1c-1.5-0.8-3.4-1.1-5.4-1.1s-3.9,0.4-5.4,1.1c-1.5,0.8-2.8,1.8-3.7,3.1c-1,1.3-1.7,2.8-2.2,4.5
		c-0.5,1.7-0.7,3.5-0.7,5.4s0.2,3.8,0.8,5.5c0.5,1.7,1.3,3.2,2.3,4.5c1,1.3,2.3,2.3,3.8,3C500.1,256.3,501.8,256.7,503.8,256.7
		L503.8,256.7z"/>
	<path d="M530.9,207.7h5.8v22.4c1.2-2.3,2.8-3.9,4.8-4.9s4.3-1.5,6.8-1.5c2.3,0,4.2,0.4,6,1.1s3.1,1.8,4.3,3.2c1.1,1.4,2,3,2.6,4.8
		c0.6,1.9,0.9,3.9,0.9,6v22.1h-5.8v-22.5c0-3.2-0.8-5.6-2.3-7.2c-1.5-1.6-3.8-2.5-6.9-2.5c-3.3,0-5.8,0.9-7.6,2.7
		c-1.8,1.8-2.7,4.2-2.7,7.3v22.2h-5.8L530.9,207.7L530.9,207.7z"/>
	<path d="M588.5,261.5c-2.7,0-5.2-0.5-7.4-1.5s-4.1-2.3-5.7-4c-1.6-1.7-2.8-3.7-3.6-6c-0.8-2.3-1.3-4.8-1.3-7.4s0.5-5.2,1.3-7.6
		s2.2-4.3,3.8-6s3.5-3,5.8-4s4.7-1.4,7.4-1.4s5.2,0.5,7.5,1.5c2.2,1,4.1,2.3,5.7,4s2.8,3.7,3.6,6c0.9,2.3,1.3,4.8,1.3,7.4
		s-0.5,5.2-1.3,7.5s-2.2,4.3-3.8,6c-1.6,1.7-3.6,3-5.8,4S591.2,261.5,588.5,261.5L588.5,261.5z M588.6,256.7c2.1,0,3.9-0.4,5.5-1.2
		c1.5-0.8,2.8-1.8,3.8-3.1s1.8-2.8,2.3-4.5s0.7-3.5,0.7-5.3s-0.3-3.7-0.8-5.4s-1.3-3.2-2.3-4.5c-1-1.3-2.3-2.3-3.9-3.1
		s-3.3-1.1-5.4-1.1s-3.9,0.4-5.4,1.1c-1.5,0.8-2.8,1.8-3.7,3.1s-1.7,2.8-2.2,4.5c-0.5,1.7-0.7,3.5-0.7,5.4s0.2,3.8,0.8,5.5
		c0.5,1.7,1.3,3.2,2.3,4.5c1,1.3,2.3,2.3,3.8,3C584.8,256.3,586.6,256.7,588.6,256.7L588.6,256.7z"/>
	<path d="M630.4,210.9h8.5l16,39.7l15.8-39.7h8.4v50h-6.1v-42.1l-17,42.1h-2.6L636,218.8v42.1h-5.6L630.4,210.9L630.4,210.9z"/>
	<path d="M711.7,256.3c-1.3,1.8-3,3.1-5.1,3.9c-2.1,0.9-4.2,1.3-6.5,1.3c-1.6,0-3.2-0.2-4.6-0.7c-1.5-0.5-2.7-1.1-3.8-2
		s-2-2-2.6-3.4c-0.7-1.3-1-2.9-1-4.6c0-1.9,0.4-3.4,1.1-4.7c0.7-1.3,1.7-2.4,2.9-3.2c1.2-0.8,2.6-1.5,4.1-2s3.2-0.8,4.8-1
		c1.7-0.2,3.3-0.4,4.9-0.4s3.1-0.1,4.5-0.1h1.3v-0.2c0-1.6-0.1-3-0.3-4.3c-0.2-1.3-0.6-2.4-1.3-3.4c-0.6-0.9-1.5-1.7-2.6-2.2
		c-1.1-0.5-2.6-0.8-4.4-0.8c-1,0-2,0.1-2.9,0.4c-1,0.3-1.8,0.7-2.7,1.3s-1.5,1.2-2.2,2c-0.6,0.8-1.1,1.7-1.4,2.6l-5-2.1
		c0.7-1.5,1.5-2.9,2.5-4c1-1.1,2.1-2.1,3.4-2.8c1.2-0.8,2.6-1.3,4.1-1.7c1.5-0.4,3-0.6,4.6-0.6c2,0,3.9,0.3,5.7,0.9
		c1.7,0.6,3.2,1.5,4.4,2.6c1.2,1.1,2.2,2.5,2.9,4.2s1,3.5,1,5.6v24h-5.8L711.7,256.3L711.7,256.3z M706.6,243.5
		c-0.8,0-1.7,0-2.6,0.1c-0.9,0.1-1.9,0.2-2.8,0.4c-1,0.2-1.9,0.4-2.8,0.8s-1.7,0.8-2.3,1.3s-1.2,1.2-1.6,2c-0.4,0.8-0.6,1.7-0.6,2.8
		s0.2,2.1,0.5,2.9c0.3,0.8,0.8,1.4,1.4,1.9s1.3,0.8,2.1,1.1s1.7,0.3,2.7,0.3c1.3,0,2.7-0.2,4-0.6c1.3-0.4,2.5-0.9,3.5-1.7
		c1-0.8,1.9-1.7,2.5-2.8c0.7-1.1,1-2.4,1-3.8v-4.6L706.6,243.5L706.6,243.5z"/>
	<path d="M727.7,213.8c0-1.1,0.4-2,1.1-2.8s1.7-1.1,2.8-1.1s2,0.4,2.8,1.1s1.1,1.7,1.1,2.8s-0.4,2-1.1,2.8s-1.7,1.1-2.8,1.1
		s-2-0.4-2.8-1.1S727.7,214.9,727.7,213.8z M728.8,224.4h5.8v36.5h-5.8V224.4z"/>
	<path d="M746.4,208l5.9-2.6v55.5h-5.9V208z"/>
</g>
<g>
	<path class="st0" d="M282.5,63.9L210,3c-3.9-3.2-9.1-4-13.7-1.8s-7.4,6.6-7.4,11.7V37H55.2C41,37,29.4,48.6,29.4,62.8v122.9
		L4.6,206.3c-2.9,2.5-4.6,6.1-4.6,9.9c0,3.8,1.7,7.4,4.6,9.9L77.1,287c2.4,2,5.3,3,8.2,3c1.8,0,3.7-0.4,5.5-1.2
		c4.6-2.1,7.4-6.6,7.4-11.7v-24.2h133.7c14.2,0,25.7-11.5,25.7-25.7V104.3l24.8-20.7c2.9-2.4,4.6-6,4.6-9.9
		C287.1,70,285.4,66.4,282.5,63.9L282.5,63.9z M194.2,134.9c-3.6,3-4.1,8.4-1.1,12.1s8.4,4.1,12.1,1.1l35.2-29.4v108.6
		c0,4.7-3.9,8.6-8.6,8.6H89.6c-4.7,0-8.6,3.8-8.6,8.6v23.5l-61.5-51.7l73.3-61.1c3.6-3,4.1-8.4,1.1-12.1s-8.4-4.1-12.1-1.1
		l-35.2,29.4V62.8c0-4.7,3.8-8.6,8.6-8.6h142.2c4.7,0,8.6-3.8,8.6-8.6V22.1l61.5,51.7L194.2,134.9L194.2,134.9z"/>
	<path class="st1" d="M193.1,93H93.7c-7.1,0-12.9,5.8-12.9,12.9v78.2c0,7.1,5.8,12.9,12.9,12.9h99.3c7.1,0,12.9-5.8,12.9-12.9v-78.2
		C205.9,98.8,200.2,93,193.1,93L193.1,93z M183.9,110.2l-40.6,33.7l-40.6-33.7H183.9z M98,179.8v-51.3l38.1,31.6
		c2.1,1.8,4.7,2.6,7.3,2.6s5.2-0.9,7.3-2.6l38.1-31.6v51.3L98,179.8L98,179.8z"/>
</g>
</svg>
